<mxfile host="Electron" agent="Mozilla/5.0 (Windows NT 10.0; Win64; x64) AppleWebKit/537.36 (KHTML, like Gecko) draw.io/26.0.9 Chrome/128.0.6613.186 Electron/32.2.5 Safari/537.36" version="26.0.9">
  <diagram name="Task 37" id="Y4bb0FSJ0n_Wbb0E39wK">
    <mxGraphModel dx="1194" dy="1906" grid="1" gridSize="10" guides="1" tooltips="1" connect="1" arrows="1" fold="1" page="1" pageScale="1" pageWidth="850" pageHeight="1100" math="0" shadow="0">
      <root>
        <mxCell id="0" />
        <mxCell id="1" parent="0" />
        <mxCell id="DMr-TDSlTiLrda-89Qm5-3" style="edgeStyle=orthogonalEdgeStyle;rounded=0;orthogonalLoop=1;jettySize=auto;html=1;exitX=1;exitY=0.5;exitDx=0;exitDy=0;entryX=0;entryY=0.5;entryDx=0;entryDy=0;fillColor=#d5e8d4;strokeColor=#82b366;" parent="1" source="DMr-TDSlTiLrda-89Qm5-1" target="DMr-TDSlTiLrda-89Qm5-16" edge="1">
          <mxGeometry relative="1" as="geometry">
            <mxPoint x="190" y="-950" as="targetPoint" />
            <Array as="points">
              <mxPoint x="180" y="-860" />
              <mxPoint x="180" y="-860" />
            </Array>
          </mxGeometry>
        </mxCell>
        <mxCell id="DMr-TDSlTiLrda-89Qm5-7" value="a,c" style="edgeLabel;html=1;align=center;verticalAlign=middle;resizable=0;points=[];" parent="DMr-TDSlTiLrda-89Qm5-3" vertex="1" connectable="0">
          <mxGeometry x="0.2327" y="-1" relative="1" as="geometry">
            <mxPoint x="-11" y="-1" as="offset" />
          </mxGeometry>
        </mxCell>
        <mxCell id="DMr-TDSlTiLrda-89Qm5-35" style="edgeStyle=orthogonalEdgeStyle;rounded=0;orthogonalLoop=1;jettySize=auto;html=1;entryX=0;entryY=0.5;entryDx=0;entryDy=0;fillColor=#d5e8d4;strokeColor=#82b366;" parent="1" source="DMr-TDSlTiLrda-89Qm5-1" target="DMr-TDSlTiLrda-89Qm5-37" edge="1">
          <mxGeometry relative="1" as="geometry">
            <mxPoint x="220" y="-940" as="targetPoint" />
            <Array as="points">
              <mxPoint x="110" y="-940" />
            </Array>
          </mxGeometry>
        </mxCell>
        <mxCell id="DMr-TDSlTiLrda-89Qm5-36" value="b" style="edgeLabel;html=1;align=center;verticalAlign=middle;resizable=0;points=[];" parent="DMr-TDSlTiLrda-89Qm5-35" vertex="1" connectable="0">
          <mxGeometry x="0.3277" y="-1" relative="1" as="geometry">
            <mxPoint as="offset" />
          </mxGeometry>
        </mxCell>
        <mxCell id="DMr-TDSlTiLrda-89Qm5-1" value="&lt;div&gt;&lt;font size=&quot;1&quot;&gt;S&lt;/font&gt;&lt;/div&gt;" style="ellipse;whiteSpace=wrap;html=1;aspect=fixed;" parent="1" vertex="1">
          <mxGeometry x="90" y="-880" width="40" height="40" as="geometry" />
        </mxCell>
        <mxCell id="DMr-TDSlTiLrda-89Qm5-9" style="edgeStyle=orthogonalEdgeStyle;rounded=0;orthogonalLoop=1;jettySize=auto;html=1;entryX=0.5;entryY=1;entryDx=0;entryDy=0;exitX=1;exitY=0.5;exitDx=0;exitDy=0;fillColor=#d5e8d4;strokeColor=#82b366;" parent="1" source="DMr-TDSlTiLrda-89Qm5-18" target="DMr-TDSlTiLrda-89Qm5-47" edge="1">
          <mxGeometry relative="1" as="geometry">
            <mxPoint x="380" y="-940" as="targetPoint" />
            <mxPoint x="360" y="-980" as="sourcePoint" />
          </mxGeometry>
        </mxCell>
        <mxCell id="DMr-TDSlTiLrda-89Qm5-12" value="b" style="edgeLabel;html=1;align=center;verticalAlign=middle;resizable=0;points=[];" parent="DMr-TDSlTiLrda-89Qm5-9" vertex="1" connectable="0">
          <mxGeometry x="-0.1598" relative="1" as="geometry">
            <mxPoint as="offset" />
          </mxGeometry>
        </mxCell>
        <mxCell id="DMr-TDSlTiLrda-89Qm5-17" style="edgeStyle=orthogonalEdgeStyle;rounded=0;orthogonalLoop=1;jettySize=auto;html=1;entryX=0;entryY=0.5;entryDx=0;entryDy=0;fillColor=#f8cecc;strokeColor=#b85450;" parent="1" source="DMr-TDSlTiLrda-89Qm5-16" target="DMr-TDSlTiLrda-89Qm5-18" edge="1">
          <mxGeometry relative="1" as="geometry">
            <mxPoint x="320" y="-860" as="targetPoint" />
          </mxGeometry>
        </mxCell>
        <mxCell id="DMr-TDSlTiLrda-89Qm5-19" value="b" style="edgeLabel;html=1;align=center;verticalAlign=middle;resizable=0;points=[];" parent="DMr-TDSlTiLrda-89Qm5-17" vertex="1" connectable="0">
          <mxGeometry x="-0.0889" relative="1" as="geometry">
            <mxPoint as="offset" />
          </mxGeometry>
        </mxCell>
        <mxCell id="DMr-TDSlTiLrda-89Qm5-31" style="edgeStyle=orthogonalEdgeStyle;rounded=0;orthogonalLoop=1;jettySize=auto;html=1;entryX=0.5;entryY=1;entryDx=0;entryDy=0;exitX=0.5;exitY=1;exitDx=0;exitDy=0;fillColor=#f8cecc;strokeColor=#b85450;" parent="1" source="DMr-TDSlTiLrda-89Qm5-16" target="DMr-TDSlTiLrda-89Qm5-1" edge="1">
          <mxGeometry relative="1" as="geometry">
            <mxPoint x="210" y="-770" as="targetPoint" />
          </mxGeometry>
        </mxCell>
        <mxCell id="DMr-TDSlTiLrda-89Qm5-32" value="a,c" style="edgeLabel;html=1;align=center;verticalAlign=middle;resizable=0;points=[];" parent="DMr-TDSlTiLrda-89Qm5-31" vertex="1" connectable="0">
          <mxGeometry x="-0.2019" relative="1" as="geometry">
            <mxPoint x="-18" as="offset" />
          </mxGeometry>
        </mxCell>
        <mxCell id="DMr-TDSlTiLrda-89Qm5-16" value="&lt;font size=&quot;1&quot;&gt;O&lt;/font&gt;" style="ellipse;whiteSpace=wrap;html=1;aspect=fixed;" parent="1" vertex="1">
          <mxGeometry x="210" y="-880" width="40" height="40" as="geometry" />
        </mxCell>
        <mxCell id="DMr-TDSlTiLrda-89Qm5-59" style="edgeStyle=orthogonalEdgeStyle;rounded=0;orthogonalLoop=1;jettySize=auto;html=1;fillColor=#d5e8d4;strokeColor=#82b366;entryX=0.75;entryY=1;entryDx=0;entryDy=0;entryPerimeter=0;" parent="1" source="DMr-TDSlTiLrda-89Qm5-18" target="DMr-TDSlTiLrda-89Qm5-16" edge="1">
          <mxGeometry relative="1" as="geometry">
            <mxPoint x="240" y="-830" as="targetPoint" />
            <Array as="points">
              <mxPoint x="350" y="-810" />
              <mxPoint x="240" y="-810" />
            </Array>
          </mxGeometry>
        </mxCell>
        <mxCell id="DMr-TDSlTiLrda-89Qm5-60" value="a,c" style="edgeLabel;html=1;align=center;verticalAlign=middle;resizable=0;points=[];" parent="DMr-TDSlTiLrda-89Qm5-59" vertex="1" connectable="0">
          <mxGeometry x="-0.2457" relative="1" as="geometry">
            <mxPoint x="-26" as="offset" />
          </mxGeometry>
        </mxCell>
        <mxCell id="DMr-TDSlTiLrda-89Qm5-18" value="&lt;font style=&quot;font-size: 9px;&quot;&gt;U&lt;/font&gt;" style="ellipse;whiteSpace=wrap;html=1;aspect=fixed;" parent="1" vertex="1">
          <mxGeometry x="330" y="-880" width="40" height="40" as="geometry" />
        </mxCell>
        <mxCell id="DMr-TDSlTiLrda-89Qm5-38" style="edgeStyle=orthogonalEdgeStyle;rounded=0;orthogonalLoop=1;jettySize=auto;html=1;entryX=0;entryY=0.5;entryDx=0;entryDy=0;fillColor=#f8cecc;strokeColor=#b85450;" parent="1" source="DMr-TDSlTiLrda-89Qm5-37" target="DMr-TDSlTiLrda-89Qm5-39" edge="1">
          <mxGeometry relative="1" as="geometry">
            <mxPoint x="300" y="-940" as="targetPoint" />
          </mxGeometry>
        </mxCell>
        <mxCell id="DMr-TDSlTiLrda-89Qm5-41" value="b" style="edgeLabel;html=1;align=center;verticalAlign=middle;resizable=0;points=[];" parent="DMr-TDSlTiLrda-89Qm5-38" vertex="1" connectable="0">
          <mxGeometry x="-0.1429" y="1" relative="1" as="geometry">
            <mxPoint as="offset" />
          </mxGeometry>
        </mxCell>
        <mxCell id="DMr-TDSlTiLrda-89Qm5-50" style="edgeStyle=orthogonalEdgeStyle;rounded=0;orthogonalLoop=1;jettySize=auto;html=1;fillColor=#f8cecc;strokeColor=#b85450;entryX=1;entryY=0;entryDx=0;entryDy=0;" parent="1" source="DMr-TDSlTiLrda-89Qm5-37" target="DMr-TDSlTiLrda-89Qm5-1" edge="1">
          <mxGeometry relative="1" as="geometry">
            <mxPoint x="270" y="-900" as="targetPoint" />
            <Array as="points">
              <mxPoint x="230" y="-900" />
              <mxPoint x="124" y="-900" />
            </Array>
          </mxGeometry>
        </mxCell>
        <mxCell id="DMr-TDSlTiLrda-89Qm5-51" value="a,c" style="edgeLabel;html=1;align=center;verticalAlign=middle;resizable=0;points=[];" parent="DMr-TDSlTiLrda-89Qm5-50" vertex="1" connectable="0">
          <mxGeometry x="-0.2357" y="1" relative="1" as="geometry">
            <mxPoint as="offset" />
          </mxGeometry>
        </mxCell>
        <mxCell id="DMr-TDSlTiLrda-89Qm5-37" value="&lt;font style=&quot;font-size: 9px;&quot;&gt;T&lt;/font&gt;" style="ellipse;whiteSpace=wrap;html=1;aspect=fixed;" parent="1" vertex="1">
          <mxGeometry x="210" y="-960" width="40" height="40" as="geometry" />
        </mxCell>
        <mxCell id="DMr-TDSlTiLrda-89Qm5-45" value="" style="edgeStyle=orthogonalEdgeStyle;rounded=0;orthogonalLoop=1;jettySize=auto;html=1;entryX=0;entryY=0.5;entryDx=0;entryDy=0;fillColor=#d5e8d4;strokeColor=#82b366;" parent="1" source="DMr-TDSlTiLrda-89Qm5-39" target="DMr-TDSlTiLrda-89Qm5-47" edge="1">
          <mxGeometry relative="1" as="geometry">
            <mxPoint x="410" y="-940" as="targetPoint" />
          </mxGeometry>
        </mxCell>
        <mxCell id="DMr-TDSlTiLrda-89Qm5-52" value="a,b,c" style="edgeLabel;html=1;align=center;verticalAlign=middle;resizable=0;points=[];" parent="DMr-TDSlTiLrda-89Qm5-45" vertex="1" connectable="0">
          <mxGeometry x="-0.0476" y="1" relative="1" as="geometry">
            <mxPoint as="offset" />
          </mxGeometry>
        </mxCell>
        <mxCell id="DMr-TDSlTiLrda-89Qm5-39" value="&lt;font style=&quot;font-size: 9px;&quot;&gt;V&lt;/font&gt;" style="ellipse;whiteSpace=wrap;html=1;aspect=fixed;" parent="1" vertex="1">
          <mxGeometry x="330" y="-960" width="40" height="40" as="geometry" />
        </mxCell>
        <mxCell id="DMr-TDSlTiLrda-89Qm5-46" value="" style="group" parent="1" vertex="1" connectable="0">
          <mxGeometry x="450" y="-960" width="40" height="40" as="geometry" />
        </mxCell>
        <mxCell id="DMr-TDSlTiLrda-89Qm5-47" value="" style="ellipse;whiteSpace=wrap;html=1;aspect=fixed;" parent="DMr-TDSlTiLrda-89Qm5-46" vertex="1">
          <mxGeometry width="40" height="40" as="geometry" />
        </mxCell>
        <mxCell id="DMr-TDSlTiLrda-89Qm5-48" value="&lt;font size=&quot;1&quot;&gt;W&lt;/font&gt;" style="ellipse;whiteSpace=wrap;html=1;aspect=fixed;" parent="DMr-TDSlTiLrda-89Qm5-46" vertex="1">
          <mxGeometry x="5" y="5" width="30" height="30" as="geometry" />
        </mxCell>
        <mxCell id="DMr-TDSlTiLrda-89Qm5-55" style="edgeStyle=orthogonalEdgeStyle;rounded=0;orthogonalLoop=1;jettySize=auto;html=1;fillColor=#f8cecc;strokeColor=#b85450;entryX=0.5;entryY=0;entryDx=0;entryDy=0;exitX=0.5;exitY=0;exitDx=0;exitDy=0;" parent="1" source="DMr-TDSlTiLrda-89Qm5-47" target="DMr-TDSlTiLrda-89Qm5-39" edge="1">
          <mxGeometry relative="1" as="geometry">
            <mxPoint x="520" y="-970" as="sourcePoint" />
            <mxPoint x="490" y="-1030" as="targetPoint" />
            <Array as="points">
              <mxPoint x="470" y="-980" />
              <mxPoint x="350" y="-980" />
            </Array>
          </mxGeometry>
        </mxCell>
        <mxCell id="DMr-TDSlTiLrda-89Qm5-56" value="a,b,c" style="edgeLabel;html=1;align=center;verticalAlign=middle;resizable=0;points=[];" parent="DMr-TDSlTiLrda-89Qm5-55" vertex="1" connectable="0">
          <mxGeometry x="-0.0159" y="1" relative="1" as="geometry">
            <mxPoint as="offset" />
          </mxGeometry>
        </mxCell>
        <mxCell id="DMr-TDSlTiLrda-89Qm5-63" value="" style="endArrow=classic;html=1;rounded=0;entryX=0;entryY=0.5;entryDx=0;entryDy=0;" parent="1" target="DMr-TDSlTiLrda-89Qm5-1" edge="1">
          <mxGeometry width="50" height="50" relative="1" as="geometry">
            <mxPoint x="40" y="-860" as="sourcePoint" />
            <mxPoint x="430" y="-950" as="targetPoint" />
          </mxGeometry>
        </mxCell>
      </root>
    </mxGraphModel>
  </diagram>
</mxfile>
